# xmcd CD database file
#
# Track frame offsets:
#	182
#	13605
#	31537
#	53647
#	69282
#	86585
#	104082
#	114912
#	134415
#	150077
#	162177
#	184157
#
# Disc length: 2614 seconds
#
# Revision: 3
# Processed by: cddbd v1.4PL0 Copyright (c) Steve Scherf et al.
# Submitted via: CDex 1.40Release
#
DISCID=870a340c
DTITLE=Henning Stærk - Wahtever Gets You Thru The Night
DYEAR=1984
DGENRE=Pop-Folk
TTITLE0=Cherry Cherry
TTITLE1=Waiting For A Long Time
TTITLE2=Hallelujah To Amen
TTITLE3=Wahtever Gets You Thru The Night
TTITLE4=The Fortunate Few
TTITLE5=Brass Buttons
TTITLE6=Too Tongue Twisted
TTITLE7=Everybody Loves A Winner
TTITLE8=Diving For Pearls
TTITLE9=Let's Talk About Us
TTITLE10=On A Saturday Night
TTITLE11=We Had It All
EXTD=YEAR: 1984 ID3G: 53
EXTT0=
EXTT1=
EXTT2=
EXTT3=
EXTT4=
EXTT5=
EXTT6=
EXTT7=
EXTT8=
EXTT9=
EXTT10=
EXTT11=
PLAYORDER=
